# xmcd CD database file
#
# Track frame offsets:
#	182
#	14240
#	34575
#	47154
#	61697
#	80617
#	93000
#	106710
#	120607
#	130695
#	144637
#	159542
#	178692
#	193695
#	207380
#	218960
#	232690
#	246752
#	261397
#	274552
#
# Disc length: 3794 seconds
#
# Revision: 2
# Processed by: cddbd v1.5PL3 Copyright (c) Steve Scherf et al.
# Submitted via: CDex 1.51
#
DISCID=150ed014
DTITLE=Various Artist - Early Jazz - 1917-1923 - CD1
DYEAR=2000
DGENRE=Jazz
TTITLE0=ODJB (Original Dixieland ''Jass'' Band): Livery Stable Blues [1917]
TTITLE1=Frisco ''Jass'' Band: Johnson ''Jass'' Blues [1917]
TTITLE2=(W.C.) Handy's Orchestra (Of Memphis): Ole Miss Ragg [1917]
TTITLE3=(Eubie) Blake's Jazzone Orchestra: The Jazz Dance [1917]
TTITLE4=Earl Fuller's Famous Jazz Band: Jazz De Luxe [1918]
TTITLE5=Wilbur Sweatman's Original Jazz Band: The Darktown Strutters' Ball (intro Sorry I Made You Cry) [1918]
TTITLE6=Original New Orleans Jazz Band: Ja-Da (intro You'll Find Old Dixieland In France) [1918]
TTITLE7=Lieut. Jim Europe's 369th U.S. Infantry (''Hellfighters'') Band: Saint Louis Blues [1919]
TTITLE8=L'Orchestre Scrap Iron Jazzerinos: Everybody Shimmies Now [1919]
TTITLE9=Gorman's Novelty Syncopators: Barkin' Dog [1919]
TTITLE10=Louisiana Five: Slow And Easy (intro I'm Sorry I Ain't Got It) [1919]
TTITLE11=Lopez And Hamilton's King Of Harmony Orchestra: Bluin' the Blues [1920]
TTITLE12=Paul Whiteman And His Ambassador Orchestra: Wang Wang Blues [1920]
TTITLE13=Billy Arnold's Novelty Jazz Band: Stop it! [1920]
TTITLE14=Art Hickman's New York-London Five: Soudan [1920]
TTITLE15=Joseph Samuel's Jazz Band: Crazy Blues [1921]
TTITLE16=Coon - Sanders' Novelty Orchestra: Some Little Bird [1921]
TTITLE17=Tim Brymn And His Black Devils Orchestra: Don't Tell Your Monkey Man [1921]
TTITLE18=California(n) Ramblers: The Sheik (Of Araby) [1921]
TTITLE19=Mitchell's Jazz Kings: Hep! [1921]
EXTD=YEAR: 2000
EXTT0=
EXTT1=
EXTT2=
EXTT3=
EXTT4=
EXTT5=
EXTT6=
EXTT7=
EXTT8=
EXTT9=
EXTT10=
EXTT11=
EXTT12=
EXTT13=
EXTT14=
EXTT15=
EXTT16=
EXTT17=
EXTT18=
EXTT19=
PLAYORDER=
